<svg width="44" height="44" viewBox="0 0 44 44" fill="none" xmlns="http://www.w3.org/2000/svg">
<g clip-path="url(#clip0_13293_19796)">
<rect width="44" height="44" rx="22" fill="black"/>
<path fill-rule="evenodd" clip-rule="evenodd" d="M25.2188 14.0318C24.5977 14.8048 23.5547 15.3846 22.7227 15.3846C22.6289 15.3846 22.5352 15.3725 22.4766 15.3605C22.4648 15.3121 22.4414 15.1672 22.4414 15.0223C22.4414 14.0318 22.9219 13.0655 23.4492 12.4495C24.1172 11.6402 25.2305 11.0362 26.1562 11C26.1797 11.1087 26.1914 11.2416 26.1914 11.3744C26.1914 12.3528 25.7812 13.3312 25.2188 14.0318ZM21.1433 29.6399C20.7257 29.8248 20.3299 30 19.793 30C18.6445 30 17.8477 28.9129 16.9336 27.5842C15.8672 26.014 15 23.5861 15 21.2912C15 17.595 17.332 15.6383 19.6289 15.6383C20.2993 15.6383 20.9119 15.8916 21.4565 16.1169C21.8925 16.2973 22.285 16.4596 22.6289 16.4596C22.9272 16.4596 23.2989 16.3082 23.7321 16.1318C24.3372 15.8853 25.0623 15.59 25.875 15.59C26.3906 15.59 28.2773 15.6383 29.5195 17.4743C29.5124 17.48 29.4972 17.4903 29.4751 17.5053C29.1695 17.7133 27.5391 18.8227 27.5391 21.0979C27.5391 23.9123 29.918 24.9148 30 24.939C29.9979 24.9444 29.993 24.9599 29.9853 24.9845C29.9071 25.234 29.5343 26.4233 28.7344 27.6325C27.9492 28.7921 27.1172 29.9758 25.875 29.9758C25.2628 29.9758 24.8726 29.7978 24.4698 29.6139C24.04 29.4177 23.5957 29.2149 22.8516 29.2149C22.1034 29.2149 21.6097 29.4334 21.1433 29.6399Z" fill="#FEFEFE"/>
</g>
<defs>
<clipPath id="clip0_13293_19796">
<rect width="44" height="44" fill="white"/>
</clipPath>
</defs>
</svg>
