<svg width="640" height="140" viewBox="0 0 640 140" fill="none" xmlns="http://www.w3.org/2000/svg">
<rect width="640" height="140" rx="16" fill="#FEFEFE"/>
<path d="M221.664 81L226.144 58.6H229.344L224.864 81H221.664ZM235.218 81.192C233.789 81.192 232.434 81.0107 231.154 80.648C229.896 80.264 228.925 79.7947 228.242 79.24L229.618 76.808C230.28 77.32 231.133 77.736 232.178 78.056C233.245 78.376 234.354 78.536 235.506 78.536C236.978 78.536 238.088 78.312 238.834 77.864C239.581 77.416 239.954 76.808 239.954 76.04C239.954 75.4853 239.73 75.0693 239.282 74.792C238.834 74.4933 238.248 74.2693 237.522 74.12C236.818 73.9493 236.061 73.7893 235.25 73.64C234.44 73.4693 233.682 73.2347 232.978 72.936C232.274 72.6373 231.688 72.2107 231.218 71.656C230.77 71.08 230.546 70.3227 230.546 69.384C230.546 68.2533 230.866 67.2827 231.506 66.472C232.146 65.64 233.042 65 234.194 64.552C235.346 64.104 236.69 63.88 238.226 63.88C239.336 63.88 240.424 64.0187 241.49 64.296C242.578 64.552 243.464 64.9253 244.146 65.416L242.93 67.848C242.226 67.3573 241.437 67.016 240.562 66.824C239.688 66.6107 238.813 66.504 237.938 66.504C236.509 66.504 235.432 66.7493 234.706 67.24C233.981 67.7093 233.618 68.3067 233.618 69.032C233.618 69.5867 233.842 70.024 234.29 70.344C234.738 70.6427 235.314 70.8773 236.018 71.048C236.744 71.2187 237.501 71.3893 238.29 71.56C239.101 71.7093 239.858 71.9333 240.562 72.232C241.288 72.5093 241.874 72.9253 242.322 73.48C242.77 74.0133 242.994 74.7493 242.994 75.688C242.994 76.8613 242.664 77.864 242.002 78.696C241.362 79.5067 240.456 80.1253 239.282 80.552C238.109 80.9787 236.754 81.192 235.218 81.192ZM249.97 81.192C248.54 81.192 247.186 81.0107 245.906 80.648C244.647 80.264 243.676 79.7947 242.994 79.24L244.37 76.808C245.031 77.32 245.884 77.736 246.93 78.056C247.996 78.376 249.106 78.536 250.258 78.536C251.73 78.536 252.839 78.312 253.586 77.864C254.332 77.416 254.706 76.808 254.706 76.04C254.706 75.4853 254.482 75.0693 254.034 74.792C253.586 74.4933 252.999 74.2693 252.274 74.12C251.57 73.9493 250.812 73.7893 250.002 73.64C249.191 73.4693 248.434 73.2347 247.73 72.936C247.026 72.6373 246.439 72.2107 245.97 71.656C245.522 71.08 245.298 70.3227 245.298 69.384C245.298 68.2533 245.618 67.2827 246.258 66.472C246.898 65.64 247.794 65 248.946 64.552C250.098 64.104 251.442 63.88 252.978 63.88C254.087 63.88 255.175 64.0187 256.242 64.296C257.33 64.552 258.215 64.9253 258.898 65.416L257.682 67.848C256.978 67.3573 256.188 67.016 255.314 66.824C254.439 66.6107 253.564 66.504 252.69 66.504C251.26 66.504 250.183 66.7493 249.458 67.24C248.732 67.7093 248.37 68.3067 248.37 69.032C248.37 69.5867 248.594 70.024 249.042 70.344C249.49 70.6427 250.066 70.8773 250.77 71.048C251.495 71.2187 252.252 71.3893 253.042 71.56C253.852 71.7093 254.61 71.9333 255.314 72.232C256.039 72.5093 256.626 72.9253 257.074 73.48C257.522 74.0133 257.746 74.7493 257.746 75.688C257.746 76.8613 257.415 77.864 256.754 78.696C256.114 79.5067 255.207 80.1253 254.034 80.552C252.86 80.9787 251.506 81.192 249.97 81.192ZM266.577 81.192C265.126 81.192 263.899 80.8933 262.897 80.296C261.915 79.6987 261.222 78.8347 260.817 77.704C260.411 76.552 260.369 75.1653 260.689 73.544L262.577 64.04H265.649L263.761 73.576C263.462 75.0907 263.611 76.2853 264.209 77.16C264.827 78.0133 265.915 78.44 267.473 78.44C269.073 78.44 270.417 77.992 271.505 77.096C272.593 76.2 273.318 74.8453 273.681 73.032L275.473 64.04H278.545L275.185 81H272.241L273.201 76.136L273.745 77.448C272.955 78.728 271.931 79.6773 270.673 80.296C269.435 80.8933 268.07 81.192 266.577 81.192ZM287.849 81.192C286.185 81.192 284.745 80.8933 283.529 80.296C282.313 79.6773 281.374 78.824 280.713 77.736C280.052 76.6267 279.721 75.3253 279.721 73.832C279.721 71.912 280.137 70.2053 280.969 68.712C281.801 67.2187 282.932 66.0453 284.361 65.192C285.812 64.3173 287.454 63.88 289.289 63.88C290.825 63.88 292.158 64.1787 293.289 64.776C294.42 65.352 295.294 66.184 295.913 67.272C296.553 68.36 296.873 69.672 296.873 71.208C296.873 71.592 296.852 71.9867 296.809 72.392C296.766 72.776 296.713 73.1387 296.649 73.48H281.961L282.345 71.24H295.177L293.929 72.008C294.121 70.8133 294.036 69.8107 293.673 69C293.31 68.168 292.734 67.5387 291.945 67.112C291.177 66.664 290.249 66.44 289.161 66.44C287.881 66.44 286.75 66.7493 285.769 67.368C284.809 67.9653 284.062 68.808 283.529 69.896C282.996 70.9627 282.729 72.2213 282.729 73.672C282.729 75.208 283.166 76.4027 284.041 77.256C284.937 78.088 286.292 78.504 288.105 78.504C289.172 78.504 290.164 78.3333 291.081 77.992C291.998 77.6293 292.756 77.1493 293.353 76.552L294.665 78.76C293.854 79.5493 292.841 80.1573 291.625 80.584C290.409 80.9893 289.15 81.192 287.849 81.192ZM310.213 81L314.117 61.384H306.469L307.013 58.6H325.541L324.965 61.384H317.317L313.381 81H310.213ZM322.444 81L325.804 64.04H328.748L327.788 68.968L327.468 67.752C328.258 66.3227 329.26 65.32 330.476 64.744C331.692 64.168 333.196 63.88 334.988 63.88L334.412 66.856C334.284 66.8347 334.156 66.824 334.028 66.824C333.9 66.824 333.762 66.824 333.612 66.824C331.927 66.824 330.53 67.2827 329.42 68.2C328.332 69.1173 327.596 70.5573 327.212 72.52L325.516 81H322.444ZM341.37 81.192C339.941 81.192 338.661 80.904 337.53 80.328C336.4 79.7307 335.504 78.888 334.842 77.8C334.202 76.712 333.882 75.4 333.882 73.864C333.882 72.4133 334.117 71.08 334.586 69.864C335.077 68.648 335.749 67.592 336.602 66.696C337.477 65.8 338.501 65.1067 339.674 64.616C340.848 64.1253 342.117 63.88 343.482 63.88C344.954 63.88 346.202 64.136 347.226 64.648C348.25 65.16 349.04 65.9173 349.594 66.92C350.149 67.9013 350.426 69.1067 350.426 70.536C350.426 72.6267 350.064 74.4827 349.338 76.104C348.613 77.704 347.568 78.952 346.202 79.848C344.858 80.744 343.248 81.192 341.37 81.192ZM342.042 78.504C343.322 78.504 344.464 78.1947 345.466 77.576C346.469 76.9573 347.248 76.1147 347.802 75.048C348.378 73.96 348.666 72.7227 348.666 71.336C348.666 69.8427 348.229 68.68 347.354 67.848C346.48 66.9947 345.232 66.568 343.61 66.568C342.352 66.568 341.221 66.8773 340.218 67.496C339.216 68.0933 338.426 68.936 337.85 70.024C337.274 71.0907 336.986 72.328 336.986 73.736C336.986 75.208 337.424 76.3707 338.298 77.224C339.173 78.0773 340.421 78.504 342.042 78.504ZM346.938 81L347.834 76.616L348.858 72.68L349.274 68.648L350.17 64.04H353.242L349.882 81H346.938ZM362.479 81.192C360.836 81.192 359.407 80.8933 358.191 80.296C356.996 79.6773 356.068 78.824 355.407 77.736C354.745 76.6267 354.415 75.336 354.415 73.864C354.415 71.944 354.841 70.2373 355.695 68.744C356.548 67.2293 357.732 66.0453 359.247 65.192C360.761 64.3173 362.479 63.88 364.399 63.88C366.041 63.88 367.449 64.1893 368.623 64.808C369.796 65.4053 370.713 66.3227 371.375 67.56L368.783 69C368.356 68.168 367.748 67.56 366.959 67.176C366.191 66.7707 365.263 66.568 364.175 66.568C362.895 66.568 361.753 66.8773 360.751 67.496C359.748 68.0933 358.959 68.936 358.383 70.024C357.807 71.0907 357.519 72.328 357.519 73.736C357.519 75.208 357.956 76.3707 358.831 77.224C359.727 78.0773 360.985 78.504 362.607 78.504C363.609 78.504 364.548 78.3013 365.423 77.896C366.319 77.4907 367.065 76.8933 367.663 76.104L369.903 77.704C369.135 78.792 368.089 79.6453 366.767 80.264C365.444 80.8827 364.015 81.192 362.479 81.192ZM374.621 76.712L375.261 72.968L386.557 64.04H390.877L381.405 71.496L379.773 72.712L374.621 76.712ZM371.229 81L375.965 57.256H379.037L374.301 81H371.229ZM384.317 81L379.261 72.744L381.341 70.408L387.869 81H384.317ZM396.733 81.192C395.069 81.192 393.629 80.8933 392.413 80.296C391.197 79.6773 390.258 78.824 389.597 77.736C388.935 76.6267 388.605 75.3253 388.605 73.832C388.605 71.912 389.021 70.2053 389.853 68.712C390.685 67.2187 391.815 66.0453 393.245 65.192C394.695 64.3173 396.338 63.88 398.173 63.88C399.709 63.88 401.042 64.1787 402.173 64.776C403.303 65.352 404.178 66.184 404.797 67.272C405.437 68.36 405.757 69.672 405.757 71.208C405.757 71.592 405.735 71.9867 405.693 72.392C405.65 72.776 405.597 73.1387 405.533 73.48H390.845L391.229 71.24H404.061L402.813 72.008C403.005 70.8133 402.919 69.8107 402.557 69C402.194 68.168 401.618 67.5387 400.829 67.112C400.061 66.664 399.133 66.44 398.045 66.44C396.765 66.44 395.634 66.7493 394.653 67.368C393.693 67.9653 392.946 68.808 392.413 69.896C391.879 70.9627 391.613 72.2213 391.613 73.672C391.613 75.208 392.05 76.4027 392.925 77.256C393.821 78.088 395.175 78.504 396.989 78.504C398.055 78.504 399.047 78.3333 399.965 77.992C400.882 77.6293 401.639 77.1493 402.237 76.552L403.549 78.76C402.738 79.5493 401.725 80.1573 400.509 80.584C399.293 80.9893 398.034 81.192 396.733 81.192ZM406.919 81L410.279 64.04H413.223L412.263 68.968L411.943 67.752C412.733 66.3227 413.735 65.32 414.951 64.744C416.167 64.168 417.671 63.88 419.463 63.88L418.887 66.856C418.759 66.8347 418.631 66.824 418.503 66.824C418.375 66.824 418.237 66.824 418.087 66.824C416.402 66.824 415.005 67.2827 413.895 68.2C412.807 69.1173 412.071 70.5573 411.687 72.52L409.991 81H406.919Z" fill="#14142B"/>
</svg>
